# xmcd
#
# Track frame offsets:
#	150
#	29766
#	59423
#	82140
#	97134
#	115416
#	137112
#	158412
#	170648
#	193331
#	211521
#	237186
#	261397
#	279638
#	291346
#
# Disc length: 4083 seconds
#
# Revision: 0
# Processed by: cddbd v1.4PL0 Copyright (c) Steve Scherf et al.
# Submitted via: dBpowerAMP V4.0
#
DISCID=ec0ff10f
DTITLE=Various Artist - Oldies At Best
DYEAR=1900
DGENRE=Oldies
TTITLE0=Suavecito
TTITLE1=Love The Way
TTITLE2=Can't Make It
TTITLE3=Sabor A Mi
TTITLE4=Crystal Blue Persuasion
TTITLE5=The Agony and the Ecstasy
TTITLE6=Make It With you
TTITLE7=If this Worls Was Mine
TTITLE8=So
TTITLE9=Let's Get It On
TTITLE10=For The Love Of You
TTITLE11=Rock And Roll Gangster
TTITLE12=Don't Let No One Get You Down
TTITLE13=I'd Rather Go Blind
TTITLE14=Tonights The Night
EXTD=
EXTT0=
EXTT1=
EXTT2=
EXTT3=
EXTT4=
EXTT5=
EXTT6=
EXTT7=
EXTT8=
EXTT9=
EXTT10=
EXTT11=
EXTT12=
EXTT13=
EXTT14=
PLAYORDER=
